<svg width="191" height="48" viewBox="0 0 191 48" fill="none" xmlns="http://www.w3.org/2000/svg">
<rect x="0.5" y="4" width="10" height="10" fill="#155EEF"/>
<rect opacity="0.6" x="20.5" y="4" width="10" height="10" fill="#155EEF"/>
<rect opacity="0.6" x="10.5" y="14" width="10" height="10" fill="#155EEF"/>
<rect opacity="0.45" x="20.5" y="14" width="10" height="10" fill="#155EEF"/>
<rect opacity="0.3" x="30.5" y="14" width="10" height="10" fill="#155EEF"/>
<rect opacity="0.6" x="0.5" y="24" width="10" height="10" fill="#155EEF"/>
<rect opacity="0.45" x="10.5" y="24" width="10" height="10" fill="#155EEF"/>
<rect opacity="0.3" x="20.5" y="24" width="10" height="10" fill="#155EEF"/>
<rect opacity="0.15" x="30.5" y="24" width="10" height="10" fill="#155EEF"/>
<rect opacity="0.3" x="10.5" y="34" width="10" height="10" fill="#155EEF"/>
<rect opacity="0.15" x="20.5" y="34" width="10" height="10" fill="#155EEF"/>
<path d="M70.42 23.22C70.42 25.98 69.53 28.35 67.75 30.33C65.99 32.31 63.53 33.3 60.37 33.3C57.19 33.3 54.75 32.31 53.05 30.33C51.35 28.35 50.5 26 50.5 23.28C50.5 20.44 51.4 18.05 53.2 16.11C55 14.17 57.43 13.2 60.49 13.2C63.61 13.2 66.04 14.19 67.78 16.17C69.54 18.13 70.42 20.48 70.42 23.22ZM66.07 23.34C66.07 21.26 65.59 19.64 64.63 18.48C63.67 17.32 62.28 16.74 60.46 16.74C58.52 16.74 57.1 17.36 56.2 18.6C55.3 19.82 54.85 21.35 54.85 23.19C54.85 24.97 55.29 26.51 56.17 27.81C57.05 29.11 58.52 29.76 60.58 29.76C62.48 29.76 63.87 29.17 64.75 27.99C65.63 26.79 66.07 25.24 66.07 23.34Z" fill="#0A0D12"/>
<path d="M87.2174 33H81.5474V30.48C81.1674 31.26 80.6074 31.93 79.8674 32.49C79.1274 33.03 78.1474 33.3 76.9274 33.3C75.1474 33.3 73.7474 32.69 72.7274 31.47C71.7074 30.25 71.1974 28.59 71.1974 26.49C71.1974 24.47 71.6974 22.75 72.6974 21.33C73.6974 19.91 75.2074 19.2 77.2274 19.2C78.3274 19.2 79.2274 19.42 79.9274 19.86C80.6274 20.3 81.1674 20.86 81.5474 21.54V15.3H78.8474V12.36H85.4174V30.09H87.2174V33ZM81.5474 26.16V25.83C81.5474 24.71 81.2474 23.84 80.6474 23.22C80.0674 22.58 79.3374 22.26 78.4574 22.26C77.5974 22.26 76.8374 22.58 76.1774 23.22C75.5374 23.86 75.2174 24.87 75.2174 26.25C75.2174 27.55 75.5174 28.54 76.1174 29.22C76.7174 29.9 77.4274 30.24 78.2474 30.24C79.2674 30.24 80.0674 29.81 80.6474 28.95C81.2474 28.09 81.5474 27.16 81.5474 26.16Z" fill="#0A0D12"/>
<path d="M100.937 28.74C100.837 29.94 100.247 31 99.1668 31.92C98.0868 32.84 96.5768 33.3 94.6368 33.3C92.6168 33.3 90.9468 32.73 89.6268 31.59C88.3268 30.45 87.6768 28.75 87.6768 26.49C87.6768 24.41 88.2668 22.68 89.4468 21.3C90.6468 19.9 92.3168 19.2 94.4568 19.2C96.3368 19.2 97.8568 19.74 99.0168 20.82C100.197 21.9 100.797 23.32 100.817 25.08C100.817 25.74 100.747 26.39 100.607 27.03H91.7268C91.9468 29.17 93.0068 30.24 94.9068 30.24C95.9468 30.24 96.6468 29.99 97.0068 29.49C97.3868 28.99 97.6168 28.54 97.6968 28.14L100.937 28.74ZM96.8268 24.78C96.9068 24.1 96.7568 23.46 96.3768 22.86C96.0168 22.26 95.3768 21.96 94.4568 21.96C93.6568 21.96 93.0368 22.22 92.5968 22.74C92.1568 23.26 91.8768 23.94 91.7568 24.78H96.8268Z" fill="#0A0D12"/>
<path d="M102.989 20.43C104.169 19.95 105.149 19.63 105.929 19.47C106.729 19.29 107.679 19.2 108.779 19.2C110.239 19.2 111.499 19.58 112.559 20.34C113.619 21.1 114.149 22.25 114.149 23.79V29.67C114.149 30.37 114.459 30.72 115.079 30.72C115.259 30.72 115.449 30.69 115.649 30.63L115.679 32.67C114.899 33.09 114.089 33.3 113.249 33.3C111.469 33.3 110.479 32.41 110.279 30.63V30.6C109.899 31.28 109.349 31.9 108.629 32.46C107.929 33.02 107.029 33.3 105.929 33.3C104.949 33.3 104.009 33.01 103.109 32.43C102.209 31.85 101.759 30.85 101.759 29.43C101.759 27.77 102.419 26.67 103.739 26.13C105.079 25.59 106.519 25.32 108.059 25.32C108.919 25.32 109.659 25.36 110.279 25.44V24.99C110.279 24.29 110.179 23.61 109.979 22.95C109.799 22.29 109.159 21.96 108.059 21.96C107.659 21.96 107.289 21.99 106.949 22.05C106.629 22.09 106.309 22.19 105.989 22.35L105.479 24.27L102.389 23.94L102.989 20.43ZM110.279 27.48V27.3C109.959 27.26 109.629 27.22 109.289 27.18C108.969 27.14 108.649 27.12 108.329 27.12C107.649 27.12 107.049 27.25 106.529 27.51C106.009 27.75 105.749 28.24 105.749 28.98C105.749 29.42 105.869 29.79 106.109 30.09C106.349 30.39 106.759 30.54 107.339 30.54C108.019 30.54 108.649 30.3 109.229 29.82C109.829 29.32 110.179 28.54 110.279 27.48Z" fill="#0A0D12"/>
<path d="M130.615 26.25C130.615 28.39 129.915 30.1 128.515 31.38C127.115 32.66 125.335 33.3 123.175 33.3C121.095 33.3 119.395 32.7 118.075 31.5C116.775 30.28 116.125 28.58 116.125 26.4C116.125 24.42 116.725 22.72 117.925 21.3C119.125 19.88 120.945 19.17 123.385 19.17C125.825 19.17 127.635 19.88 128.815 21.3C130.015 22.7 130.615 24.35 130.615 26.25ZM126.625 26.13C126.625 24.75 126.305 23.74 125.665 23.1C125.025 22.46 124.245 22.14 123.325 22.14C122.325 22.14 121.535 22.5 120.955 23.22C120.395 23.92 120.115 24.91 120.115 26.19C120.115 27.35 120.375 28.33 120.895 29.13C121.435 29.93 122.235 30.33 123.295 30.33C124.295 30.33 125.095 29.96 125.695 29.22C126.315 28.46 126.625 27.43 126.625 26.13Z" fill="#0A0D12"/>
<path d="M145.793 33H131.153V29.58H133.253V16.92H131.153V13.5H140.003V16.92H137.273V29.58H142.373L142.973 25.8L146.393 26.1L145.793 33Z" fill="#0A0D12"/>
<path d="M148.152 20.43C149.332 19.95 150.312 19.63 151.092 19.47C151.892 19.29 152.842 19.2 153.942 19.2C155.402 19.2 156.662 19.58 157.722 20.34C158.782 21.1 159.312 22.25 159.312 23.79V29.67C159.312 30.37 159.622 30.72 160.242 30.72C160.422 30.72 160.612 30.69 160.812 30.63L160.842 32.67C160.062 33.09 159.252 33.3 158.412 33.3C156.632 33.3 155.642 32.41 155.442 30.63V30.6C155.062 31.28 154.512 31.9 153.792 32.46C153.092 33.02 152.192 33.3 151.092 33.3C150.112 33.3 149.172 33.01 148.272 32.43C147.372 31.85 146.922 30.85 146.922 29.43C146.922 27.77 147.582 26.67 148.902 26.13C150.242 25.59 151.682 25.32 153.222 25.32C154.082 25.32 154.822 25.36 155.442 25.44V24.99C155.442 24.29 155.342 23.61 155.142 22.95C154.962 22.29 154.322 21.96 153.222 21.96C152.822 21.96 152.452 21.99 152.112 22.05C151.792 22.09 151.472 22.19 151.152 22.35L150.642 24.27L147.552 23.94L148.152 20.43ZM155.442 27.48V27.3C155.122 27.26 154.792 27.22 154.452 27.18C154.132 27.14 153.812 27.12 153.492 27.12C152.812 27.12 152.212 27.25 151.692 27.51C151.172 27.75 150.912 28.24 150.912 28.98C150.912 29.42 151.032 29.79 151.272 30.09C151.512 30.39 151.922 30.54 152.502 30.54C153.182 30.54 153.812 30.3 154.392 29.82C154.992 29.32 155.342 28.54 155.442 27.48Z" fill="#0A0D12"/>
<path d="M176.587 25.92C176.587 27.92 176.057 29.65 174.997 31.11C173.957 32.57 172.417 33.3 170.377 33.3C168.317 33.3 166.867 32.52 166.027 30.96C165.987 31.3 165.937 31.64 165.877 31.98C165.837 32.32 165.787 32.66 165.727 33H161.857C161.997 32.3 162.117 31.6 162.217 30.9C162.317 30.2 162.367 29.51 162.367 28.83V15.3H160.567V12.36H166.237V22.05C166.597 21.27 167.137 20.6 167.857 20.04C168.597 19.48 169.577 19.2 170.797 19.2C172.497 19.2 173.887 19.79 174.967 20.97C176.047 22.15 176.587 23.8 176.587 25.92ZM172.567 26.25C172.567 24.95 172.287 23.96 171.727 23.28C171.167 22.6 170.427 22.26 169.507 22.26C168.467 22.26 167.657 22.64 167.077 23.4C166.517 24.16 166.237 25.04 166.237 26.04V26.37C166.237 27.47 166.507 28.4 167.047 29.16C167.607 29.9 168.397 30.27 169.417 30.27C170.297 30.27 171.037 29.95 171.637 29.31C172.257 28.65 172.567 27.63 172.567 26.25Z" fill="#0A0D12"/>
<path d="M189.661 28.86C189.661 30.36 189.061 31.48 187.861 32.22C186.681 32.94 185.141 33.3 183.241 33.3C182.261 33.3 181.271 33.2 180.271 33C179.291 32.78 178.351 32.44 177.451 31.98L177.991 28.2L180.991 28.53V30.21C181.351 30.33 181.731 30.41 182.131 30.45C182.531 30.47 182.831 30.48 183.031 30.48C183.771 30.48 184.411 30.36 184.951 30.12C185.491 29.88 185.761 29.52 185.761 29.04C185.761 28.46 185.351 28.08 184.531 27.9C183.711 27.72 182.761 27.54 181.681 27.36C180.601 27.18 179.651 26.81 178.831 26.25C178.011 25.69 177.601 24.74 177.601 23.4C177.601 21.74 178.241 20.63 179.521 20.07C180.821 19.49 182.161 19.2 183.541 19.2C185.341 19.2 187.031 19.61 188.611 20.43L188.941 23.88L185.941 24.21L185.701 22.32C185.041 22.1 184.331 21.99 183.571 21.99C183.071 21.99 182.641 22.1 182.281 22.32C181.941 22.52 181.771 22.84 181.771 23.28C181.771 23.86 182.161 24.25 182.941 24.45C183.741 24.63 184.661 24.81 185.701 24.99C186.761 25.17 187.681 25.54 188.461 26.1C189.261 26.64 189.661 27.56 189.661 28.86Z" fill="#0A0D12"/>
</svg>
