<svg width="236" height="24" viewBox="0 0 236 24" fill="none" xmlns="http://www.w3.org/2000/svg">
<path d="M2.81818 6.36364V18H1.40909V6.36364H2.81818ZM5.64347 6.36364H7.32528L11.2798 16.0227H11.4162L15.3707 6.36364H17.0526V18H15.7344V9.15909H15.6207L11.9844 18H10.7116L7.07528 9.15909H6.96165V18H5.64347V6.36364ZM23.4688 18H19.8778V6.36364H23.6278C24.7566 6.36364 25.7225 6.59659 26.5256 7.0625C27.3286 7.52462 27.9441 8.18939 28.3722 9.05682C28.8002 9.92045 29.0142 10.9545 29.0142 12.1591C29.0142 13.3712 28.7983 14.4148 28.3665 15.2898C27.9347 16.161 27.3059 16.8314 26.4801 17.3011C25.6544 17.767 24.6506 18 23.4688 18ZM21.2869 16.75H23.3778C24.34 16.75 25.1373 16.5644 25.7699 16.1932C26.4025 15.822 26.8741 15.2936 27.1847 14.608C27.4953 13.9223 27.6506 13.1061 27.6506 12.1591C27.6506 11.2197 27.4972 10.411 27.1903 9.73295C26.8835 9.05114 26.4252 8.52841 25.8153 8.16477C25.2055 7.79735 24.446 7.61364 23.5369 7.61364H21.2869V16.75ZM31.3778 18V6.36364H35.446C36.2566 6.36364 36.9252 6.50379 37.4517 6.78409C37.9782 7.06061 38.3703 7.43371 38.6278 7.90341C38.8854 8.36932 39.0142 8.88636 39.0142 9.45455C39.0142 9.95455 38.9252 10.3674 38.7472 10.6932C38.5729 11.0189 38.3419 11.2765 38.054 11.4659C37.7699 11.6553 37.4612 11.7955 37.1278 11.8864V12C37.4839 12.0227 37.8419 12.1477 38.2017 12.375C38.5616 12.6023 38.8627 12.928 39.1051 13.3523C39.3475 13.7765 39.4688 14.2955 39.4688 14.9091C39.4688 15.4924 39.3362 16.017 39.071 16.483C38.8059 16.9489 38.3873 17.3182 37.8153 17.5909C37.2434 17.8636 36.4991 18 35.5824 18H31.3778ZM32.7869 16.75H35.5824C36.5028 16.75 37.1563 16.572 37.5426 16.2159C37.9328 15.8561 38.1278 15.4205 38.1278 14.9091C38.1278 14.5152 38.0275 14.1515 37.8267 13.8182C37.6259 13.4811 37.34 13.2121 36.9688 13.0114C36.5975 12.8068 36.1581 12.7045 35.6506 12.7045H32.7869V16.75ZM32.7869 11.4773H35.4006C35.8248 11.4773 36.2074 11.3939 36.5483 11.2273C36.893 11.0606 37.1657 10.8258 37.3665 10.5227C37.571 10.2197 37.6733 9.86364 37.6733 9.45455C37.6733 8.94318 37.4953 8.50947 37.1392 8.15341C36.7831 7.79356 36.2188 7.61364 35.446 7.61364H32.7869V11.4773ZM46.1023 18V9.27273H47.3977V10.5909H47.4886C47.6477 10.1591 47.9356 9.80871 48.3523 9.53977C48.7689 9.27083 49.2386 9.13636 49.7614 9.13636C49.8598 9.13636 49.983 9.13826 50.1307 9.14205C50.2784 9.14583 50.3902 9.15152 50.4659 9.15909V10.5227C50.4205 10.5114 50.3163 10.4943 50.1534 10.4716C49.9943 10.4451 49.8258 10.4318 49.6477 10.4318C49.2235 10.4318 48.8447 10.5208 48.5114 10.6989C48.1818 10.8731 47.9205 11.1155 47.7273 11.4261C47.5379 11.733 47.4432 12.0833 47.4432 12.4773V18H46.1023ZM54.6236 18.2045C54.0705 18.2045 53.5687 18.1004 53.1179 17.892C52.6671 17.6799 52.3092 17.375 52.044 16.9773C51.7789 16.5758 51.6463 16.0909 51.6463 15.5227C51.6463 15.0227 51.7448 14.6174 51.9418 14.3068C52.1387 13.9924 52.402 13.7462 52.7315 13.5682C53.0611 13.3902 53.4247 13.2576 53.8224 13.1705C54.224 13.0795 54.6274 13.0076 55.0327 12.9545C55.563 12.8864 55.9929 12.8352 56.3224 12.8011C56.6558 12.7633 56.8982 12.7008 57.0497 12.6136C57.205 12.5265 57.2827 12.375 57.2827 12.1591V12.1136C57.2827 11.553 57.1293 11.1174 56.8224 10.8068C56.5194 10.4962 56.0592 10.3409 55.4418 10.3409C54.8016 10.3409 54.2997 10.4811 53.9361 10.7614C53.5724 11.0417 53.3168 11.3409 53.169 11.6591L51.8963 11.2045C52.1236 10.6742 52.4266 10.2614 52.8054 9.96591C53.188 9.66667 53.6046 9.45833 54.0554 9.34091C54.5099 9.2197 54.9569 9.15909 55.3963 9.15909C55.6766 9.15909 55.9986 9.19318 56.3622 9.26136C56.7296 9.32576 57.0838 9.46023 57.4247 9.66477C57.7694 9.86932 58.0554 10.178 58.2827 10.5909C58.5099 11.0038 58.6236 11.5568 58.6236 12.25V18H57.2827V16.8182H57.2145C57.1236 17.0076 56.9721 17.2102 56.7599 17.4261C56.5478 17.642 56.2656 17.8258 55.9134 17.9773C55.5611 18.1288 55.1312 18.2045 54.6236 18.2045ZM54.8281 17C55.3584 17 55.8054 16.8958 56.169 16.6875C56.5365 16.4792 56.813 16.2102 56.9986 15.8807C57.188 15.5511 57.2827 15.2045 57.2827 14.8409V13.6136C57.2259 13.6818 57.1009 13.7443 56.9077 13.8011C56.7183 13.8542 56.4986 13.9015 56.2486 13.9432C56.0024 13.9811 55.7618 14.0152 55.527 14.0455C55.2959 14.072 55.1084 14.0947 54.9645 14.1136C54.616 14.1591 54.2902 14.233 53.9872 14.3352C53.688 14.4337 53.4455 14.5833 53.2599 14.7841C53.0781 14.9811 52.9872 15.25 52.9872 15.5909C52.9872 16.0568 53.1596 16.4091 53.5043 16.6477C53.8527 16.8826 54.294 17 54.8281 17ZM64.8665 9.27273V10.4091H60.3438V9.27273H64.8665ZM61.6619 7.18182H63.0028V15.5C63.0028 15.8788 63.0578 16.1629 63.1676 16.3523C63.2813 16.5379 63.4252 16.6629 63.5994 16.7273C63.7775 16.7879 63.965 16.8182 64.1619 16.8182C64.3097 16.8182 64.4309 16.8106 64.5256 16.7955C64.6203 16.7765 64.696 16.7614 64.7528 16.75L65.0256 17.9545C64.9347 17.9886 64.8078 18.0227 64.6449 18.0568C64.482 18.0947 64.2756 18.1136 64.0256 18.1136C63.6468 18.1136 63.2756 18.0322 62.9119 17.8693C62.5521 17.7064 62.2528 17.4583 62.0142 17.125C61.7794 16.7917 61.6619 16.3712 61.6619 15.8636V7.18182ZM66.8835 18V9.27273H68.2244V18H66.8835ZM67.5653 7.81818C67.304 7.81818 67.0786 7.72917 66.8892 7.55114C66.7036 7.37311 66.6108 7.15909 66.6108 6.90909C66.6108 6.65909 66.7036 6.44508 66.8892 6.26705C67.0786 6.08902 67.304 6 67.5653 6C67.8267 6 68.0502 6.08902 68.2358 6.26705C68.4252 6.44508 68.5199 6.65909 68.5199 6.90909C68.5199 7.15909 68.4252 7.37311 68.2358 7.55114C68.0502 7.72917 67.8267 7.81818 67.5653 7.81818ZM72.0213 12.75V18H70.6804V9.27273H71.9759V10.6364H72.0895C72.294 10.1932 72.6046 9.83712 73.0213 9.56818C73.438 9.29545 73.9759 9.15909 74.6349 9.15909C75.2259 9.15909 75.7429 9.2803 76.1861 9.52273C76.6293 9.76136 76.974 10.125 77.2202 10.6136C77.4664 11.0985 77.5895 11.7121 77.5895 12.4545V18H76.2486V12.5455C76.2486 11.8598 76.0705 11.3258 75.7145 10.9432C75.3584 10.5568 74.8698 10.3636 74.2486 10.3636C73.8205 10.3636 73.438 10.4564 73.1009 10.642C72.7675 10.8277 72.5043 11.0985 72.3111 11.4545C72.1179 11.8106 72.0213 12.2424 72.0213 12.75ZM83.5625 21.4545C82.9148 21.4545 82.358 21.3712 81.892 21.2045C81.4261 21.0417 81.0379 20.8258 80.7273 20.5568C80.4205 20.2917 80.1761 20.0076 79.9943 19.7045L81.0625 18.9545C81.1837 19.1136 81.3371 19.2955 81.5227 19.5C81.7083 19.7083 81.9621 19.8883 82.2841 20.0398C82.6098 20.1951 83.036 20.2727 83.5625 20.2727C84.267 20.2727 84.8485 20.1023 85.3068 19.7614C85.7652 19.4205 85.9943 18.8864 85.9943 18.1591V16.3864H85.8807C85.7822 16.5455 85.642 16.7424 85.4602 16.9773C85.2822 17.2083 85.0246 17.4148 84.6875 17.5966C84.3542 17.7746 83.9034 17.8636 83.3352 17.8636C82.6307 17.8636 81.9981 17.697 81.4375 17.3636C80.8807 17.0303 80.4394 16.5455 80.1136 15.9091C79.7917 15.2727 79.6307 14.5 79.6307 13.5909C79.6307 12.697 79.7879 11.9186 80.1023 11.2557C80.4167 10.589 80.8542 10.0739 81.4148 9.71023C81.9754 9.3428 82.6231 9.15909 83.358 9.15909C83.9261 9.15909 84.3769 9.25379 84.7102 9.44318C85.0473 9.62879 85.3049 9.84091 85.483 10.0795C85.6648 10.3144 85.8049 10.5076 85.9034 10.6591H86.0398V9.27273H87.3352V18.25C87.3352 19 87.1648 19.6098 86.8239 20.0795C86.4867 20.553 86.0322 20.8996 85.4602 21.1193C84.892 21.3428 84.2595 21.4545 83.5625 21.4545ZM83.517 16.6591C84.0549 16.6591 84.5095 16.536 84.8807 16.2898C85.2519 16.0436 85.5341 15.6894 85.7273 15.2273C85.9205 14.7652 86.017 14.2121 86.017 13.5682C86.017 12.9394 85.9223 12.3845 85.733 11.9034C85.5436 11.4223 85.2633 11.0455 84.892 10.7727C84.5208 10.5 84.0625 10.3636 83.517 10.3636C82.9489 10.3636 82.4754 10.5076 82.0966 10.7955C81.7216 11.0833 81.4394 11.4697 81.25 11.9545C81.0644 12.4394 80.9716 12.9773 80.9716 13.5682C80.9716 14.1742 81.0663 14.7102 81.2557 15.1761C81.4489 15.6383 81.733 16.0019 82.108 16.267C82.4867 16.5284 82.9564 16.6591 83.517 16.6591Z" fill="#7B7B7B"/>
<path fill-rule="evenodd" clip-rule="evenodd" d="M104.731 20.8327C104.224 21.0974 103.611 21.0508 103.149 20.7125C102.688 20.3743 102.459 19.8032 102.559 19.24L103.369 14.6011L99.9612 11.3357C99.5447 10.9385 99.3921 10.3381 99.5683 9.79024C99.7446 9.24235 100.219 8.84353 100.789 8.76365L105.52 8.08737L107.655 3.82659C107.909 3.3156 108.43 2.99232 109 2.99232C109.57 2.99232 110.091 3.3156 110.345 3.82659L112.48 8.08737L117.211 8.76365C117.781 8.84353 118.255 9.24235 118.432 9.79024C118.608 10.3381 118.455 10.9385 118.039 11.3357L114.631 14.6011L115.441 19.241C115.541 19.8042 115.312 20.3753 114.851 20.7135C114.389 21.0518 113.776 21.0984 113.269 20.8337L109 18.6278L104.731 20.8327Z" fill="#FEC84B" stroke="#FEC84B" stroke-width="1.5" stroke-linecap="round" stroke-linejoin="round"/>
<path fill-rule="evenodd" clip-rule="evenodd" d="M134.235 20.8345C133.728 21.0992 133.115 21.0526 132.653 20.7143C132.192 20.3761 131.963 19.805 132.063 19.2418L132.872 14.6029L129.465 11.3376C129.049 10.9404 128.896 10.3399 129.072 9.79207C129.248 9.24419 129.722 8.84536 130.292 8.76548L135.023 8.0892L137.159 3.82842C137.412 3.31743 137.933 2.99416 138.504 2.99416C139.074 2.99416 139.595 3.31743 139.848 3.82842L141.984 8.0892L146.715 8.76548C147.285 8.84536 147.759 9.24419 147.935 9.79207C148.112 10.3399 147.959 10.9404 147.543 11.3376L144.135 14.6029L144.944 19.2428C145.044 19.806 144.816 20.3771 144.354 20.7153C143.893 21.0536 143.28 21.1002 142.773 20.8355L138.504 18.6296L134.235 20.8345Z" fill="#FEC84B" stroke="#FEC84B" stroke-width="1.5" stroke-linecap="round" stroke-linejoin="round"/>
<path fill-rule="evenodd" clip-rule="evenodd" d="M161.243 20.8345C160.736 21.0992 160.122 21.0526 159.661 20.7143C159.2 20.3761 158.971 19.805 159.071 19.2418L159.88 14.6029L156.473 11.3376C156.056 10.9404 155.903 10.3399 156.08 9.79207C156.256 9.24419 156.73 8.84536 157.3 8.76548L162.031 8.0892L164.167 3.82842C164.42 3.31743 164.941 2.99416 165.511 2.99416C166.082 2.99416 166.603 3.31743 166.856 3.82842L168.992 8.0892L173.723 8.76548C174.293 8.84536 174.767 9.24419 174.943 9.79207C175.119 10.3399 174.967 10.9404 174.55 11.3376L171.143 14.6029L171.952 19.2428C172.052 19.806 171.823 20.3771 171.362 20.7153C170.901 21.0536 170.287 21.1002 169.78 20.8355L165.511 18.6296L161.243 20.8345Z" fill="#FEC84B" stroke="#FEC84B" stroke-width="1.5" stroke-linecap="round" stroke-linejoin="round"/>
<path fill-rule="evenodd" clip-rule="evenodd" d="M188.25 20.8345C187.743 21.0992 187.13 21.0526 186.668 20.7143C186.207 20.3761 185.978 19.805 186.078 19.2418L186.888 14.6029L183.48 11.3376C183.064 10.9404 182.911 10.3399 183.087 9.79207C183.264 9.24419 183.738 8.84536 184.308 8.76548L189.039 8.0892L191.174 3.82842C191.428 3.31743 191.949 2.99416 192.519 2.99416C193.089 2.99416 193.61 3.31743 193.864 3.82842L195.999 8.0892L200.73 8.76548C201.3 8.84536 201.774 9.24419 201.951 9.79207C202.127 10.3399 201.974 10.9404 201.558 11.3376L198.15 14.6029L198.96 19.2428C199.06 19.806 198.831 20.3771 198.37 20.7153C197.908 21.0536 197.295 21.1002 196.788 20.8355L192.519 18.6296L188.25 20.8345Z" fill="#FEC84B" stroke="#FEC84B" stroke-width="1.5" stroke-linecap="round" stroke-linejoin="round"/>
<path fill-rule="evenodd" clip-rule="evenodd" d="M217.754 20.8327C217.247 21.0974 216.634 21.0508 216.172 20.7125C215.711 20.3743 215.482 19.8032 215.582 19.24L216.391 14.6011L212.984 11.3357C212.568 10.9385 212.415 10.3381 212.591 9.79024C212.767 9.24235 213.241 8.84353 213.811 8.76365L218.542 8.08737L220.678 3.82659C220.932 3.3156 221.453 2.99232 222.023 2.99232C222.593 2.99232 223.114 3.3156 223.367 3.82659L225.503 8.08737L230.234 8.76365C230.804 8.84353 231.278 9.24235 231.455 9.79024C231.631 10.3381 231.478 10.9385 231.062 11.3357L227.654 14.6011L228.464 19.241C228.564 19.8042 228.335 20.3753 227.873 20.7135C227.412 21.0518 226.799 21.0984 226.292 20.8337L222.023 18.6278L217.754 20.8327Z" fill="#FEC84B" stroke="#FEC84B" stroke-width="1.5" stroke-linecap="round" stroke-linejoin="round"/>
</svg>
